<?xml version="1.0" encoding="UTF-8" standalone="no"?>
<!-- Created with Inkscape (http://www.inkscape.org/) -->

<svg
   version="1.1"
   id="svg1"
   width="153.60001"
   height="204.8"
   viewBox="0 0 153.60001 204.8"
   sodipodi:docname="チャットボットアイコン(2).svg"
   inkscape:version="1.4.4 (dcaf3e7, 2026-05-05)"
   xmlns:inkscape="http://www.inkscape.org/namespaces/inkscape"
   xmlns:sodipodi="http://sodipodi.sourceforge.net/DTD/sodipodi-0.dtd"
   xmlns:xlink="http://www.w3.org/1999/xlink"
   xmlns="http://www.w3.org/2000/svg"
   xmlns:svg="http://www.w3.org/2000/svg">
  <defs
     id="defs1">
    <linearGradient
       id="linearGradient3"
       inkscape:collect="always">
      <stop
         style="stop-color:#e088c8;stop-opacity:1;"
         offset="0.00257732"
         id="stop5" />
      <stop
         style="stop-color:#4a9fe8;stop-opacity:0;"
         offset="1"
         id="stop6" />
    </linearGradient>
    <linearGradient
       id="linearGradient1"
       inkscape:label="#E088C8">
      <stop
         style="stop-color:#e088c8;stop-opacity:1;"
         offset="0.41104296"
         id="stop3" />
      <stop
         style="stop-color:#4a9fe8;stop-opacity:1;"
         offset="1"
         id="stop4" />
    </linearGradient>
    <linearGradient
       inkscape:collect="always"
       xlink:href="#linearGradient1"
       id="linearGradient2"
       x1="0.10525171"
       y1="98.380592"
       x2="153.49475"
       y2="106.4194"
       gradientUnits="userSpaceOnUse" />
    <linearGradient
       inkscape:collect="always"
       xlink:href="#linearGradient3"
       id="linearGradient6"
       x1="0.75432783"
       y1="132.57426"
       x2="154.35448"
       y2="132.57426"
       gradientUnits="userSpaceOnUse" />
  </defs>
  <sodipodi:namedview
     id="namedview1"
     pagecolor="#ffffff"
     bordercolor="#000000"
     borderopacity="0.25"
     inkscape:showpageshadow="2"
     inkscape:pageopacity="0.0"
     inkscape:pagecheckerboard="0"
     inkscape:deskcolor="#d1d1d1"
     inkscape:zoom="2.6513671"
     inkscape:cx="76.752857"
     inkscape:cy="102.4"
     inkscape:window-width="1366"
     inkscape:window-height="745"
     inkscape:window-x="-8"
     inkscape:window-y="-8"
     inkscape:window-maximized="1"
     inkscape:current-layer="g1"
     showgrid="false" />
  <g
     inkscape:groupmode="layer"
     inkscape:label="Image"
     id="g1">
    <image
       width="153.60001"
       height="204.8"
       preserveAspectRatio="none"
       xlink:href="IMG_0783%20(1).jpeg"
       id="image1"
       style="fill:#e088c8;fill-opacity:1;stroke:url(#linearGradient2)"
       x="0.37716392"
       y="-1.1314918" />
    <path
       style="fill:url(#linearGradient6)"
       d="m 0.75432783,194.63234 c 0,-7.23125 0.092723,-9.45075 0.39999997,-9.57474 0.3200001,-0.12912 0.3200001,-0.16645 0,-0.18666 -0.4731228,-0.0299 -0.55189391,-1.94527 -0.08,-1.94527 0.1760001,0 0.3200001,0.216 0.3200001,0.48 0,0.28754 0.2951111,0.48 0.736,0.48 0.4048,0 0.8929871,0.15699 1.0848603,0.34887 0.2518137,0.25181 0.5084961,0.0786 0.9227147,-0.6226 0.3156199,-0.5343 0.6992573,-0.89396 0.8525275,-0.79923 0.1532702,0.0947 0.056449,0.51138 -0.2151577,0.92591 -0.3042171,0.46429 -0.3723278,0.82877 -0.1773878,0.94925 0.1740437,0.10757 0.3164431,-0.0113 0.3164431,-0.26413 0,-0.25283 0.2038899,-0.62891 0.4530887,-0.83573 0.362535,-0.30088 0.4962222,-0.24013 0.6689093,0.30396 0.1307003,0.4118 0.3937322,0.61172 0.6669114,0.50689 0.2543378,-0.0976 0.4510907,0.0202 0.4510907,0.27019 0,0.24381 -0.18,0.50758 -0.4,0.58615 -0.22,0.0786 -0.2841703,0.2664 -0.1426007,0.4174 0.1415697,0.151 0.37747,0.0803 0.524223,-0.15719 0.1467529,-0.23745 0.413494,-0.34108 0.5927578,-0.23029 0.200783,0.12409 0.2566016,-0.0637 0.1453696,-0.48904 -0.1137914,-0.43514 -0.056995,-0.61411 0.1535846,-0.48397 0.1837822,0.11359 0.501458,0.005 0.7059462,-0.24147 0.2545129,-0.30667 0.2659506,-0.5134 0.036258,-0.65536 -0.1845463,-0.11406 -0.3355387,-0.0309 -0.3355387,0.18484 0,0.21572 -0.09252,0.2997 -0.2056002,0.18662 -0.2992083,-0.29921 0.54137,-1.20909 0.9077871,-0.98263 0.1703188,0.10526 0.2237939,0.57168 0.1188335,1.03648 -0.1736611,0.76902 -0.1507283,0.79401 0.2547999,0.27763 0.4195523,-0.53424 0.4596787,-0.52487 0.6855326,0.16 l 0.239895,0.72745 0.141632,-0.72 c 0.0779,-0.396 0.285321,-0.72 0.460941,-0.72 0.175619,0 0.2279,0.288 0.116179,0.64 -0.116525,0.36714 -0.0575,0.64 0.138436,0.64 0.18786,0 0.341564,-0.288 0.341564,-0.64 0,-0.352 0.149451,-0.64 0.332112,-0.64 0.182662,0 0.290662,0.39089 0.24,0.86863 -0.06297,0.59377 0.07198,0.90244 0.426474,0.97549 0.407973,0.0841 0.484132,-0.0841 0.357058,-0.78863 -0.08884,-0.49252 -0.303837,-1.07549 -0.477768,-1.29549 -0.216689,-0.27408 -0.19374,-0.4 0.0729,-0.4 0.214028,0 0.46008,0.27128 0.546783,0.60283 0.112037,0.42843 0.350419,0.55241 0.824016,0.42856 0.531101,-0.13888 0.623346,-0.0621 0.454413,0.3781 -0.169247,0.44106 -0.0834,0.51156 0.426026,0.34988 0.365313,-0.11595 0.637986,-0.0565 0.637986,0.13907 0,0.18786 0.159407,0.34156 0.354237,0.34156 0.202653,0 0.26444,-0.234 0.14439,-0.54684 -0.138562,-0.36109 0.03359,-0.73047 0.506778,-1.0874 0.663717,-0.50065 0.777086,-0.50216 1.535609,-0.0206 0.450443,0.28601 0.912247,0.65199 1.026232,0.81329 0.113985,0.1613 0.518215,0.21196 0.898288,0.11257 0.548903,-0.14354 0.618265,-0.093 0.337216,0.24562 -0.225176,0.27132 -0.239865,0.49677 -0.0404,0.62005 0.172385,0.10654 0.395519,0.0609 0.495854,-0.10147 0.22613,-0.36588 2.421797,0.2649 2.421797,0.69575 0,0.16699 -0.288,0.22832 -0.64,0.13627 -0.352,-0.0921 -0.64,-0.0189 -0.64,0.16267 0,0.19605 0.389755,0.25209 0.96,0.13804 0.577383,-0.11547 0.96,-0.0585 0.96,0.14286 0,0.18417 0.226285,0.10857 0.502857,-0.168 0.566723,-0.56672 1.598442,-0.66616 1.897143,-0.18286 0.112167,0.1815 -0.156677,0.32 -0.621115,0.32 -0.450387,0 -0.818885,0.144 -0.818885,0.32 0,0.176 -0.252,0.32221 -0.56,0.32491 -0.437481,0.004 -0.464736,0.0653 -0.124577,0.28077 0.239483,0.15174 0.730001,0.19885 1.090039,0.1047 0.443525,-0.11599 0.580796,-0.0517 0.425691,0.19922 -0.321039,0.51945 0.607443,0.47046 1.043591,-0.0551 0.373353,-0.44987 2.285256,-0.34642 2.285256,0.12364 0,0.14604 -0.324,0.50612 -0.72,0.80018 l -0.72,0.53464 0.697814,-0.16074 c 0.970185,-0.22347 2.283364,1.14747 1.733615,1.80988 -0.260556,0.31395 -0.275531,0.527 -0.04697,0.66826 0.184547,0.11406 0.335539,-0.009 0.335539,-0.27262 0,-0.68068 0.588859,-0.95858 1.111701,-0.52466 0.347349,0.28827 0.517981,0.22935 0.785983,-0.27142 0.188274,-0.35179 0.342316,-0.86509 0.342316,-1.14066 0,-0.27557 0.144,-0.50104 0.32,-0.50104 0.393822,0 0.402412,0.20468 0.03781,0.90104 -0.416256,0.79503 0.140581,1.97897 0.930761,1.97897 0.368058,0 0.5802,0.144 0.471426,0.32 -0.108774,0.176 0.09873,0.32 0.461115,0.32 0.362387,0 0.658885,-0.13437 0.658885,-0.2986 0,-0.16423 0.432,-0.28632 0.96,-0.2713 0.578325,0.0164 0.96,0.19877 0.96,0.45859 0,0.23722 0.144,0.43131 0.32,0.43131 0.176,0 0.32,-0.288 0.32,-0.64 0,-0.352 0.160795,-0.64 0.357322,-0.64 0.196527,0 0.287357,0.26754 0.201844,0.59454 -0.08551,0.32701 -0.01748,0.84113 0.151174,1.14251 0.239896,0.42867 0.161124,0.58601 -0.361844,0.72277 -1.084672,0.28365 -0.773385,0.93036 0.464711,0.96546 0.869591,0.0246 1.05634,-0.0605 0.802777,-0.36603 -0.181737,-0.21898 -0.245314,-0.48326 -0.141281,-0.58729 0.234995,-0.235 1.725297,0.41962 1.725297,0.75784 0,0.13588 0.273209,0.33378 0.607131,0.43976 0.426733,0.13544 0.562299,0.40333 0.45625,0.90157 -0.135437,0.6363 -0.107506,0.65438 0.272869,0.17658 0.233063,-0.29275 0.606626,-0.79675 0.830141,-1.12 0.374914,-0.54219 0.391833,-0.53195 0.218436,0.13229 -0.189788,0.72702 0.28268,1.0027 0.663218,0.38698 0.113199,-0.18316 0.472927,-0.24824 0.799397,-0.14462 0.388843,0.12341 0.704792,-0.0194 0.916008,-0.41407 0.239377,-0.44728 0.574097,-0.56552 1.299489,-0.45906 0.537384,0.0789 0.977062,0.33456 0.977062,0.5682 0,0.64329 0.609983,0.88584 1.134017,0.45093 0.457144,-0.37939 0.516531,-0.31592 0.609669,0.65164 0.02541,0.264 0.25548,0.43118 0.51126,0.37151 0.25578,-0.0597 1.113054,-0.12426 1.905054,-0.14354 0.792,-0.0193 1.188,-0.089 0.88,-0.15498 -0.308,-0.066 -0.56,-0.32658 -0.56,-0.57917 0,-0.38044 0.111508,-0.39014 0.649764,-0.0565 0.537259,0.33299 0.702632,0.3196 0.9551,-0.0773 0.410093,-0.64469 0.400189,-0.11685 -0.01227,0.65383 -0.26417,0.49361 -0.233268,0.57564 0.16,0.42473 0.268073,-0.10287 0.487405,-0.35699 0.487405,-0.5647 0,-0.20772 0.288,-0.39936 0.64,-0.42588 0.359491,-0.0271 0.64,0.14905 0.64,0.40186 0,0.28393 -0.206719,0.38357 -0.56,0.26993 -0.456556,-0.14687 -0.474156,-0.11936 -0.09528,0.14892 0.255597,0.18099 0.584374,0.25513 0.730616,0.16474 0.577766,-0.35707 2.5286,-0.44341 2.317954,-0.10258 -0.269431,0.43595 1.514111,0.2784 1.82931,-0.16159 0.420653,-0.5872 0.59502,0.0628 0.264607,0.98635 l -0.330698,0.92439 0.60202,-0.7064 c 0.331111,-0.38851 0.679563,-0.62885 0.774338,-0.53407 0.09477,0.0948 0.472652,0.0116 0.839725,-0.18487 0.540784,-0.28942 0.667407,-0.26469 0.667407,0.1303 0,0.3148 0.255061,0.46049 0.72,0.41126 0.423838,-0.0449 0.688673,0.0836 0.643839,0.31226 -0.0439,0.22391 0.124771,0.31138 0.398162,0.20647 0.260878,-0.10011 0.394652,-0.31093 0.297276,-0.46849 -0.09738,-0.15755 -0.01107,-0.28646 0.191796,-0.28646 0.202864,0 0.441552,0.27803 0.530417,0.61785 0.09607,0.36738 0.343386,0.54809 0.610042,0.44577 0.305795,-0.11735 0.450027,0.0678 0.453369,0.58214 0.0073,1.12082 0.353586,1.42787 1.590462,1.41018 1.332392,-0.019 1.813985,-1.01042 0.583343,-1.20082 -0.68733,-0.10634 -0.676733,-0.12738 0.15237,-0.30245 0.490092,-0.10349 0.819158,-0.11624 0.731259,-0.0283 -0.0879,0.0879 -0.01582,0.42888 0.160183,0.75774 0.213709,0.39932 0.213305,0.59793 -0.0012,0.59793 -0.176669,0 -0.242425,0.20532 -0.146125,0.45628 0.121818,0.31745 0.556903,0.42133 1.429957,0.34141 0.693756,-0.0635 1.254866,0.0271 1.254866,0.20261 0,0.17461 -0.157843,0.21991 -0.350762,0.10068 -0.217775,-0.13459 -0.307529,0.01 -0.236731,0.38112 0.06298,0.33023 0.437018,0.64395 0.835508,0.70077 0.396812,0.0566 0.638842,0.23659 0.537845,0.4 -0.100997,0.16342 -0.03963,0.29713 0.136369,0.29713 0.176,0 0.416208,-0.15567 0.533796,-0.34593 0.117587,-0.19026 0.558086,-0.25952 0.978885,-0.15391 0.742763,0.18642 0.913992,-0.0282 0.794518,-0.99603 -0.02552,-0.20673 0.101418,-0.46723 0.282085,-0.57889 0.180668,-0.11166 0.328487,-0.0505 0.328487,0.13587 0,0.18639 0.279501,0.33889 0.621114,0.33889 0.341613,0 0.710112,0.144 0.818886,0.32 0.108774,0.176 0.441272,0.31779 0.738885,0.3151 0.46915,-0.004 0.477278,-0.0492 0.06112,-0.33786 -0.350937,-0.24343 -0.100849,-0.28578 0.930106,-0.1575 0.829084,0.10316 1.58724,0.0284 1.84,-0.18133 0.648189,-0.53795 0.516514,-0.88115 -0.260145,-0.67805 -0.472785,0.12364 -0.617964,0.0638 -0.461115,-0.18996 0.125909,-0.20372 0.42102,-0.3704 0.655803,-0.3704 0.234783,0 0.513268,-0.22513 0.618855,-0.50029 0.105587,-0.27515 0.34681,-0.40459 0.536052,-0.28763 0.189241,0.11696 0.266778,0.41409 0.172303,0.66028 -0.09911,0.25829 0.02702,0.44764 0.298184,0.44764 0.258477,0 0.469957,-0.144 0.469957,-0.32 0,-0.176 0.156,-0.32 0.346667,-0.32 0.190666,0 0.287479,0.17756 0.215138,0.39458 -0.07234,0.21702 0.22012,0.57702 0.649912,0.8 0.994787,0.5161 1.028283,0.51193 1.028283,-0.12792 0,-0.29333 0.09475,-0.43858 0.210557,-0.32277 0.115807,0.1158 0.390033,0.0616 0.609391,-0.12045 0.565254,-0.46912 2.062522,-0.0422 1.844513,0.5259 -0.09511,0.24786 -0.03032,0.45066 0.143981,0.45066 0.174303,0 0.420973,-0.324 0.548155,-0.72 0.195837,-0.60977 0.254138,-0.63427 0.380786,-0.16 0.282305,1.05714 2.342617,0.30661 2.342617,-0.85337 0,-0.50503 0.06683,-0.50334 0.96,0.0243 0.621009,0.36684 0.960001,0.82521 0.960001,1.29809 0,0.78517 0.469198,0.98677 0.770379,0.33101 0.101042,-0.22 0.100414,-0.0668 -0.0014,0.34047 -0.127495,0.51001 -0.05188,0.7223 0.242954,0.68208 0.916183,-0.12496 1.228062,0.042 1.228062,0.65745 0,0.352 0.144,0.64 0.32,0.64 0.176,0 0.32,-0.12 0.32,-0.26667 0,-0.14667 0.222196,-0.26667 0.49377,-0.26667 0.294275,0 0.423563,0.18296 0.32,0.45284 -0.09557,0.24906 -0.17377,0.51306 -0.17377,0.58667 0,0.0736 -0.996,0.13383 -2.213334,0.13383 -1.471251,0 -2.267448,-0.13412 -2.374737,-0.4 -0.129122,-0.32 -0.166456,-0.32 -0.186666,0 -0.01955,0.30954 -1.987535,0.4 -8.702586,0.4 -8.519777,0 -8.674284,-0.0116 -8.509959,-0.64 0.103951,-0.39751 0.0098,-0.64 -0.248441,-0.64 -0.555126,0 -0.870572,0.87705 -0.386302,1.07406 0.210113,0.0855 -16.357977,0.16678 -36.817978,0.18067 l -37.20000117,0.0253 z m 70.08000317,8.77334 c 0,-0.176 -0.152499,-0.32 -0.338886,-0.32 -0.186387,0 -0.249888,0.144 -0.141114,0.32 0.108774,0.176 0.261272,0.32 0.338885,0.32 0.07761,0 0.141115,-0.144 0.141115,-0.32 z m 7.593333,0.12666 c -0.106333,-0.10633 -0.382333,-0.1177 -0.613333,-0.0253 -0.255275,0.10215 -0.179449,0.17798 0.193333,0.19333 0.337334,0.0139 0.526334,-0.0617 0.42,-0.16807 z m 13.427252,-1.32666 c -0.08049,-0.308 -0.146344,-0.056 -0.146344,0.56 0,0.616 0.06585,0.868 0.146344,0.56 0.08049,-0.308 0.08049,-0.812 0,-1.12 z m 2.339416,0.86111 c 0,-0.36239 -0.137711,-0.57378 -0.306025,-0.46975 -0.168313,0.10402 -0.224907,0.40052 -0.125763,0.65888 0.253832,0.66148 0.431788,0.58353 0.431788,-0.18913 z m -17.08572,-1.11038 c 0.038,-0.2589 -0.06217,-0.47073 -0.222596,-0.47073 -0.160427,0 -0.291685,0.312 -0.291685,0.69333 0,0.739 0.398461,0.56654 0.514281,-0.2226 z m 1.319052,0.29593 c -0.106333,-0.10633 -0.382333,-0.1177 -0.613333,-0.0253 -0.255275,0.10215 -0.179449,0.17798 0.193333,0.19333 0.337334,0.0139 0.526334,-0.0617 0.42,-0.16807 z m 6.720001,-0.32 c -0.106334,-0.10633 -0.382334,-0.1177 -0.613334,-0.0253 -0.255274,0.10215 -0.179448,0.17798 0.193334,0.19333 0.337333,0.0139 0.526333,-0.0617 0.42,-0.16807 z m -16.654738,-1.14666 c -0.102152,-0.25528 -0.177978,-0.17945 -0.193333,0.19333 -0.0139,0.33733 0.06174,0.52633 0.16807,0.42 0.106333,-0.10633 0.117702,-0.38233 0.02526,-0.61333 z m 1.374986,0.21226 c -0.222631,-0.26825 -0.488092,-0.40442 -0.589915,-0.3026 -0.101823,0.10182 0.0267,0.3191 0.2856,0.48283 0.677431,0.42842 0.765945,0.376 0.304315,-0.18023 z m 13.606418,0.16774 c 0.108774,-0.176 0.04527,-0.32 -0.141114,-0.32 -0.186387,0 -0.338886,0.144 -0.338886,0.32 0,0.176 0.0635,0.32 0.141115,0.32 0.07761,0 0.230111,-0.144 0.338885,-0.32 z m 1.353334,0.12666 c -0.106334,-0.10633 -0.382334,-0.1177 -0.613334,-0.0253 -0.255274,0.10215 -0.179448,0.17798 0.193333,0.19333 0.337334,0.0139 0.526334,-0.0617 0.420001,-0.16807 z m 3.16,-0.68 c -0.325285,-0.32528 -0.59368,0.16445 -0.32679,0.59628 0.201611,0.32622 0.276985,0.32647 0.385377,0.001 0.07411,-0.22233 0.04775,-0.49123 -0.05859,-0.59757 z m 4.286666,0.23334 c 0,-0.176 -0.0635,-0.32 -0.141114,-0.32 -0.07761,0 -0.230112,0.144 -0.338886,0.32 -0.108774,0.176 -0.04527,0.32 0.141115,0.32 0.186387,0 0.338885,-0.144 0.338885,-0.32 z m -29.226667,-2.08 c 0,-0.264 -0.192,-0.48 -0.426667,-0.48 -0.234667,0 -0.426667,0.216 -0.426667,0.48 0,0.264 0.192,0.48 0.426667,0.48 0.234667,0 0.426667,-0.216 0.426667,-0.48 z m -13.653334,-1.76 c 0,-0.176 -0.144,-0.32 -0.32,-0.32 -0.176,0 -0.32,0.144 -0.32,0.32 0,0.176 0.144,0.32 0.32,0.32 0.176,0 0.32,-0.144 0.32,-0.32 z m -1.535284,-0.98414 c -0.0938,-0.63911 -0.253799,-0.87478 -0.456367,-0.67221 -0.333563,0.33356 -0.04782,1.65635 0.357793,1.65635 0.133658,0 0.178016,-0.44287 0.09857,-0.98414 z m -2.144716,0.34414 c -0.108774,-0.176 -0.369273,-0.3178 -0.578886,-0.3151 -0.228997,0.003 -0.189528,0.12871 0.09889,0.3151 0.614759,0.39728 0.725537,0.39728 0.48,0 z m -4.07238,-0.69714 c -0.178811,-0.53643 -1.133214,-1.08394 -1.408912,-0.80824 -0.127593,0.12759 0.0455,0.44192 0.384652,0.6985 0.752509,0.56931 1.193189,0.61652 1.02426,0.10974 z m -9.687621,-3.78286 c 0.108774,-0.176 0.04527,-0.32 -0.141114,-0.32 -0.186387,0 -0.338886,0.144 -0.338886,0.32 0,0.176 0.0635,0.32 0.141115,0.32 0.07761,0 0.230111,-0.144 0.338885,-0.32 z m -6.398525,-2.56465 c 0.112531,-0.35456 0.338235,-0.56206 0.501564,-0.46112 0.163328,0.10095 0.296961,0.031 0.296961,-0.15535 0,-0.7215 -1.045315,-0.18783 -1.373298,0.70111 -0.113639,0.30801 -0.07684,0.56001 0.08178,0.56001 0.158616,0 0.380464,-0.2901 0.492996,-0.64465 z m -0.801475,-0.9325 c 0,-0.18857 -0.152499,-0.34286 -0.338886,-0.34286 -0.186387,0 -0.256038,0.13405 -0.15478,0.29789 0.101258,0.16384 0.03776,0.38834 -0.141114,0.49889 -0.178871,0.11055 -0.32522,0.34678 -0.32522,0.52497 0,0.17818 0.216,0.10797 0.48,-0.15603 0.264,-0.264 0.48,-0.63429 0.48,-0.82286 z m -1.664,0.55314 c 0.2112,-0.2112 0.381795,-0.5352 0.3791,-0.72 -0.0027,-0.1848 -0.14449,-0.12 -0.3151,0.144 -0.2068,0.32 -0.311833,0.34667 -0.3151,0.08 -0.0081,-0.66317 -0.505011,-0.44903 -0.556915,0.24 -0.05464,0.72542 0.243989,0.82003 0.808015,0.256 z m -9.536001,-1.67711 c 0,-0.0776 -0.144,-0.23011 -0.32,-0.33889 -0.176,-0.10877 -0.32,-0.0453 -0.32,0.14112 0,0.18639 0.144,0.33888 0.32,0.33888 0.176,0 0.32,-0.0635 0.32,-0.14111 z M 3.1543279,186.44567 c 0.108774,-0.176 0.045272,-0.32 -0.1411145,-0.32 -0.186387,0 -0.3388855,0.144 -0.3388855,0.32 0,0.176 0.063502,0.32 0.1411146,0.32 0.077613,0 0.2301114,-0.144 0.3388854,-0.32 z m 2.7200001,-1.13888 c 0,-0.27439 -0.1463489,-0.40844 -0.3252198,-0.29789 -0.1788709,0.11055 -0.2423724,0.33505 -0.1411145,0.49889 0.2743167,0.44385 0.4663343,0.36109 0.4663343,-0.201 z m -3.2000001,-0.46112 c 0,-0.176 -0.144,-0.32 -0.32,-0.32 -0.176,0 -0.32,0.144 -0.32,0.32 0,0.176 0.144,0.32 0.32,0.32 0.176,0 0.32,-0.144 0.32,-0.32 z m 15.6800011,-0.37333 c 0,-0.14667 -0.512499,-0.26667 -1.138886,-0.26667 -0.626387,0 -1.064721,0.12 -0.974076,0.26667 0.09064,0.14667 0.603143,0.26667 1.138885,0.26667 0.535742,0 0.974077,-0.12 0.974077,-0.26667 z m 79.504411,18.2757 c -0.01005,-0.81397 0.12846,-1.26236 0.389957,-1.26236 0.241894,0 0.325501,0.2086 0.207185,0.51692 -0.155962,0.40643 -0.05697,0.47205 0.463113,0.30699 0.382835,-0.12151 0.761046,-0.0488 0.897849,0.17251 0.159898,0.25872 0.09971,0.298 -0.186033,0.1214 -0.278641,-0.17221 -0.649431,0.0228 -1.089443,0.57292 l -0.667036,0.83399 z m 1.455592,0.98768 c 0,-0.17048 0.216,-0.22707 0.48,-0.12577 0.263998,0.10131 0.479998,0.24079 0.479998,0.30996 0,0.0692 -0.216,0.12577 -0.479998,0.12577 -0.264,0 -0.48,-0.13949 -0.48,-0.30996 z m 1.919998,-0.0443 c 0,-0.19512 0.23294,-0.26485 0.51857,-0.15525 0.4032,0.15473 0.47958,0.0499 0.34335,-0.47104 -0.12822,-0.49029 -0.0527,-0.62302 0.28143,-0.49479 0.25116,0.0964 0.45665,0.0118 0.45665,-0.18806 0,-0.19981 0.0915,-0.27179 0.20335,-0.15994 0.31035,0.31035 -0.79386,1.82332 -1.33073,1.82332 -0.25994,0 -0.47262,-0.15941 -0.47262,-0.35424 z m 1.66134,0.0102 c 0.0631,-0.1892 0.25146,-0.344 0.41866,-0.344 0.1672,0 0.3556,0.1548 0.41867,0.344 0.0631,0.1892 -0.12533,0.344 -0.41867,0.344 -0.29333,0 -0.48173,-0.1548 -0.41866,-0.344 z m 2.50356,0.104 c 0.003,-0.132 0.14032,-0.45419 0.30584,-0.71597 0.23651,-0.37407 0.28939,-0.32269 0.247,0.24 -0.0478,0.63451 -0.56517,1.07995 -0.55284,0.47597 z m 1.28483,-0.4769 c 0.009,-0.69417 0.0243,-0.69806 0.37273,-0.0973 0.36026,0.62108 0.36485,0.62108 0.60778,0 0.24033,-0.61443 0.24527,-0.61417 0.27199,0.0142 0.024,0.5655 0.0743,0.54688 0.43194,-0.16 0.2226,-0.44 0.61648,-0.8 0.87528,-0.8 0.28859,0 0.47055,0.30936 0.47055,0.8 0,0.72938 -0.13416,0.80733 -1.52,0.8831 -1.39181,0.0761 -1.51918,0.0221 -1.51027,-0.64 z m 2.55027,-0.2431 c 0,-0.176 -0.144,-0.32 -0.32,-0.32 -0.176,0 -0.32,0.144 -0.32,0.32 0,0.176 0.144,0.32 0.32,0.32 0.176,0 0.32,-0.144 0.32,-0.32 z m 1.41715,0.32 c 0,-0.352 0.11314,-0.64 0.25142,-0.64 0.13829,0 0.25143,0.288 0.25143,0.64 0,0.352 -0.11314,0.64 -0.25143,0.64 -0.13828,0 -0.25142,-0.288 -0.25142,-0.64 z m 0.82285,0.19385 c 0,-0.27484 0.3071,-0.42843 0.79978,-0.4 1.0439,0.0602 1.04411,0.84615 2.2e-4,0.84615 -0.4708,0 -0.8,-0.18359 -0.8,-0.44615 z m 1.94527,-0.0605 c 0.0153,-0.37278 0.0912,-0.44861 0.19333,-0.19333 0.0924,0.231 0.0811,0.507 -0.0253,0.61333 -0.10634,0.10633 -0.18197,-0.0827 -0.16807,-0.42 z m 0.70126,0.10667 c 0.0769,-0.22 0.39648,-0.3532 0.71012,-0.296 0.42411,0.0773 0.51627,-0.0367 0.35963,-0.44485 -0.13744,-0.35817 0.0146,-0.70662 0.43768,-1.00294 0.49482,-0.34658 0.57543,-0.59022 0.34053,-1.02915 -0.22907,-0.42802 -0.14754,-0.74705 0.31887,-1.24768 0.67822,-0.72799 0.8182,-1.33938 0.30664,-1.33938 -0.176,0 -0.32,-0.144 -0.32,-0.32 0,-0.176 0.2726,-0.32 0.60577,-0.32 0.62569,0 1.13031,0.80093 0.82047,1.30226 -0.0967,0.15648 -0.01,0.59494 0.19336,0.97435 0.29383,0.54904 0.4255,0.59938 0.64503,0.24662 0.20643,-0.33169 0.41923,-0.35779 0.84561,-0.10371 0.31337,0.18675 1.07376,0.33075 1.68976,0.32 0.83915,-0.0146 1.19817,-0.19765 1.43173,-0.72987 0.44847,-1.02196 1.1545,-1.05848 2.21764,-0.11469 0.55525,0.49292 0.85942,0.62642 0.7556,0.33163 -0.0956,-0.27137 0.0456,-0.77537 0.31368,-1.12 0.40299,-0.51803 0.45401,-0.52956 0.29445,-0.0666 -0.1217,0.3531 -0.0325,0.56 0.24139,0.56 0.23892,0 0.4144,-0.23651 0.38996,-0.52556 -0.0772,-0.9125 0.66899,-0.82289 0.90274,0.10841 0.20557,0.81907 0.66971,1.36008 1.17726,1.37225 0.27641,0.007 0.17565,-1.0702 -0.12088,-1.29179 -0.13004,-0.0972 0.26627,-0.19093 0.88068,-0.20834 0.61441,-0.0174 1.19628,0.0964 1.29305,0.25301 0.0968,0.15658 -0.0383,0.20249 -0.30004,0.10203 -0.38355,-0.14718 -0.42891,-0.007 -0.2336,0.72367 0.222,0.83007 0.9382,1.04877 0.74995,0.229 -0.0451,-0.19652 0.13576,-0.53808 0.40197,-0.75902 0.41966,-0.34828 0.45746,-0.26885 0.28423,0.59732 -0.11906,0.5953 -0.0682,0.99902 0.12596,0.99902 0.40472,0 0.77974,-0.91513 0.53639,-1.30888 -0.099,-0.16012 0.0531,-0.29112 0.33784,-0.29112 0.28478,0 0.43681,0.131 0.33785,0.29112 -0.099,0.16012 -0.0963,0.509 0.006,0.7753 0.13876,0.36159 0.53985,0.4495 1.58422,0.34723 1.08408,-0.10616 1.47957,-0.0107 1.7594,0.4247 0.23515,0.36586 0.31222,0.39432 0.22111,0.0816 -0.0769,-0.264 -0.0468,-0.74106 0.0671,-1.06014 0.1953,-0.54744 0.25591,-0.54163 1.07571,0.10323 0.70004,0.55065 0.86875,0.58761 0.86875,0.19035 0,-0.27115 -0.35768,-0.68041 -0.79484,-0.90947 l -0.79485,-0.41646 0.71485,-0.44517 c 0.64099,-0.39917 0.67194,-0.39324 0.29955,0.0575 -0.35838,0.43374 -0.28189,0.53193 0.55809,0.71642 0.53537,0.11758 1.10288,0.44517 1.26114,0.72797 0.26195,0.46808 0.36522,0.46341 1.15209,-0.0522 0.84828,-0.55582 0.8604,-0.55395 0.65259,0.10081 -0.12434,0.39177 -0.0708,0.66716 0.12982,0.66716 0.18786,0 0.34156,-0.4166 0.34156,-0.92577 0,-0.5277 0.20639,-1.00496 0.48,-1.10996 0.29828,-0.11446 0.48,0.002 0.48,0.30733 0,0.36509 0.1852,0.43188 0.72,0.25966 0.396,-0.12752 0.89367,-0.23323 1.10593,-0.2349 0.21226,-0.002 0.30569,-0.13285 0.20763,-0.29151 -0.0981,-0.15867 -0.36781,-0.21576 -0.59944,-0.12688 -0.23163,0.0889 -0.50342,-0.0528 -0.60397,-0.3148 -0.10739,-0.27986 -0.0465,-0.39218 0.14754,-0.27225 0.18169,0.1123 0.50404,0.0616 0.71633,-0.11262 0.21229,-0.17424 0.96198,-0.31209 1.66598,-0.30634 0.704,0.006 1.676,-0.0706 2.16,-0.16957 0.48996,-0.10023 0.88,-0.0392 0.88,0.13768 0,0.17473 0.15938,0.2192 0.35417,0.0988 0.25234,-0.15596 0.24113,-0.28874 -0.039,-0.46188 -0.21624,-0.13364 -0.33926,-0.40468 -0.27339,-0.60231 0.0698,-0.20943 0.48656,-0.0192 0.99901,0.45594 0.83429,0.7736 0.87922,0.78176 0.87922,0.1596 0,-0.58593 0.0766,-0.61283 0.72,-0.25295 0.396,0.22149 0.81,0.52609 0.92,0.67688 0.11,0.15079 0.2985,0.11479 0.41889,-0.08 0.58489,-0.94637 0.82111,-0.0816 0.82111,3.00584 v 3.36 h -20.18666 c -16.0106,0 -20.15774,-0.0828 -20.04681,-0.4 z m 15.37903,-1.97352 c 0.0957,-0.24944 -0.0166,-0.52666 -0.24954,-0.61606 -0.28918,-0.11097 -0.37246,0.0329 -0.26248,0.45352 0.19228,0.73527 0.28139,0.76355 0.51202,0.16254 z m 13.97444,-1.32934 c 0,-0.10057 -0.216,-0.39886 -0.48,-0.66286 -0.42666,-0.42667 -0.48,-0.40635 -0.48,0.18286 0,0.37587 0.20782,0.66286 0.48,0.66286 0.264,0 0.48,-0.0823 0.48,-0.18286 z m 2.72,-2.05714 c -0.10877,-0.176 -0.33327,-0.32 -0.49888,-0.32 -0.16561,0 -0.30112,0.144 -0.30112,0.32 0,0.176 0.2245,0.32 0.49889,0.32 0.27439,0 0.40989,-0.144 0.30111,-0.32 z m -38.99831,3.44 c -0.25649,-0.95711 -0.24873,-1.20013 0.0383,-1.19937 0.132,3.5e-4 0.27021,0.43235 0.30712,0.96 0.0795,1.13669 -0.0761,1.2445 -0.34543,0.23937 z m 6.51831,0.24 c 0,-0.264 0.144,-0.48 0.32,-0.48 0.176,0 0.32,0.216 0.32,0.48 0,0.264 -0.144,0.48 -0.32,0.48 -0.176,0 -0.32,-0.216 -0.32,-0.48 z m -17.599998,-0.17889 c 0,-0.18639 -0.144,-0.24989 -0.32,-0.14111 -0.176,0.10877 -0.32,0.0408 -0.32,-0.15116 0,-0.19191 0.216,-0.43182 0.48,-0.53312 0.819476,-0.31447 0.528182,-0.75572 -0.498886,-0.75572 -0.538387,0 -0.897815,-0.13118 -0.798729,-0.2915 0.09909,-0.16033 0.431584,-0.25271 0.738885,-0.20529 0.37358,0.0576 0.672075,-0.237 0.900776,-0.88918 0.188125,-0.53647 0.548125,-1.03105 0.8,-1.09908 0.39524,-0.10674 0.395038,-0.0799 -0.0015,0.19629 -0.374111,0.26056 -0.384057,0.41079 -0.05356,0.80901 0.237195,0.2858 0.314151,0.77799 0.18518,1.18434 -0.129062,0.40664 -0.06911,0.78898 0.1444,0.92094 0.537114,0.33195 0.05318,1.29447 -0.650831,1.29447 -0.33317,0 -0.605763,-0.1525 -0.605763,-0.33889 z m 8.319998,0.0378 c 0,-0.16561 0.14235,-0.38909 0.31634,-0.49662 0.18139,-0.11211 0.23504,0.0163 0.12576,0.30112 -0.21273,0.55437 -0.4421,0.6558 -0.4421,0.1955 z m -31.359999,-0.20174 c 0,-0.25544 0.867971,-1.09714 1.131379,-1.09714 0.119401,0 0.134207,0.216 0.0329,0.48 -0.22409,0.58396 0.147096,0.62323 0.756288,0.08 0.381608,-0.3403 0.385313,-0.31641 0.02482,0.16 -0.385431,0.50936 -1.945384,0.81178 -1.945384,0.37714 z m 32.319999,-0.4471 c 0,-0.17048 0.216,-0.22707 0.48,-0.12577 0.264,0.10131 0.48,0.24079 0.48,0.30996 0,0.0692 -0.216,0.12577 -0.48,0.12577 -0.264,0 -0.48,-0.13949 -0.48,-0.30996 z m -27.839999,-0.73004 c 0,-0.132 0.36,-0.24 0.8,-0.24 0.44,0 0.8,0.108 0.8,0.24 0,0.132 -0.36,0.24 -0.8,0.24 -0.44,0 -0.8,-0.108 -0.8,-0.24 z m -4.64,-0.24 c -0.108774,-0.176 -0.04527,-0.32 0.141114,-0.32 0.186387,0 0.338886,0.144 0.338886,0.32 0,0.176 -0.0635,0.32 -0.141115,0.32 -0.07761,0 -0.230111,-0.144 -0.338885,-0.32 z m 17.263404,-0.29315 c 0.09965,-0.16123 0.02851,-0.70123 -0.158069,-1.2 l -0.339244,-0.90685 0.856406,0.84672 c 0.860515,0.85079 0.833258,1.55328 -0.06027,1.55328 -0.264,0 -0.398472,-0.13192 -0.298826,-0.29315 z m 7.696597,-0.0268 c -0.108774,-0.176 -0.04527,-0.32 0.141114,-0.32 0.186387,0 0.338886,0.144 0.338886,0.32 0,0.176 -0.0635,0.32 -0.141115,0.32 -0.07761,0 -0.230111,-0.144 -0.338885,-0.32 z m 35.597338,-0.5027 c -0.17819,-0.93215 0.10545,-1.00671 0.63063,-0.16576 0.30337,0.48578 0.29308,0.64563 -0.0501,0.7773 -0.27115,0.10405 -0.48729,-0.12363 -0.58057,-0.61154 z m 2.48266,0.1827 c -0.10877,-0.176 -0.0453,-0.32 0.14112,-0.32 0.18638,0 0.33888,0.144 0.33888,0.32 0,0.176 -0.0635,0.32 -0.14111,0.32 -0.0776,0 -0.23011,-0.144 -0.33889,-0.32 z m -59.359999,-0.48 c 0,-0.264 0.05659,-0.48 0.125763,-0.48 0.06917,0 0.208651,0.216 0.309957,0.48 0.101307,0.264 0.04471,0.48 -0.125763,0.48 -0.170477,0 -0.309957,-0.216 -0.309957,-0.48 z m 44.639999,0.16 c -0.10877,-0.176 -0.0453,-0.32 0.14112,-0.32 0.18638,0 0.33888,0.144 0.33888,0.32 0,0.176 -0.0635,0.32 -0.14111,0.32 -0.0776,0 -0.23011,-0.144 -0.33889,-0.32 z m 19.05006,0.0949 c 0.006,-0.14021 0.36553,-0.51366 0.8,-0.82987 0.43447,-0.31622 0.78542,-0.46022 0.77989,-0.32 -0.006,0.14021 -0.36553,0.51366 -0.8,0.82987 -0.43447,0.31622 -0.78542,0.46022 -0.77989,0.32 z m -66.402103,-0.40206 c -0.271381,-0.4391 -0.03114,-0.76875 0.441789,-0.60621 0.193683,0.0666 0.218441,0.29248 0.06,0.5475 -0.200003,0.32191 -0.32974,0.33709 -0.501789,0.0587 z m 1.692044,0.0885 c 0.231,-0.0924 0.507,-0.0811 0.613333,0.0253 0.106334,0.10634 -0.08267,0.18197 -0.42,0.16807 -0.372782,-0.0153 -0.448608,-0.0912 -0.193333,-0.19333 z m 11.26,-0.0825 c 0,-0.16561 0.166249,-0.40386 0.369443,-0.52944 0.218363,-0.13496 0.282978,-0.0884 0.158006,0.11378 -0.11629,0.18816 -0.03054,0.41504 0.190557,0.50418 0.242517,0.0978 0.179834,0.17209 -0.158006,0.18733 -0.308,0.0139 -0.56,-0.11024 -0.56,-0.27585 z m -15.68,-0.33888 c 0,-0.176 0.144,-0.32 0.32,-0.32 0.176,0 0.32,0.144 0.32,0.32 0,0.176 -0.144,0.32 -0.32,0.32 -0.176,0 -0.32,-0.144 -0.32,-0.32 z m 14.226842,-0.0213 c -0.32834,-0.53127 -0.03364,-0.60494 0.425775,-0.10644 0.226939,0.24625 0.271437,0.44773 0.09888,0.44773 -0.172552,0 -0.408649,-0.15359 -0.52466,-0.34129 z m 49.945847,-0.0899 c -0.35105,-0.25669 -0.45784,-0.51261 -0.26393,-0.63245 0.17914,-0.11072 0.58327,0.0833 0.89807,0.43115 0.65184,0.72027 0.25003,0.84782 -0.63414,0.2013 z m -68.01269,-0.20884 c 0,-0.176 0.144,-0.32 0.32,-0.32 0.176,0 0.320001,0.144 0.320001,0.32 0,0.176 -0.144001,0.32 -0.320001,0.32 -0.176,0 -0.32,-0.144 -0.32,-0.32 z m 23.200001,-0.32 c -0.108774,-0.176 0.02673,-0.32 0.301115,-0.32 0.274387,0 0.498885,0.144 0.498885,0.32 0,0.176 -0.135501,0.32 -0.301114,0.32 -0.165613,0 -0.390112,-0.144 -0.498886,-0.32 z m 55.833989,-0.96372 c -0.61852,-0.38227 -0.30035,-0.60908 0.46477,-0.33132 0.34032,0.12355 0.47745,0.31197 0.30472,0.41872 -0.17272,0.10675 -0.51899,0.0674 -0.76949,-0.0874 z m 4.37029,-0.79628 c 0.10131,-0.264 0.30827,-0.48 0.45992,-0.48 0.15164,0 0.19283,0.216 0.0915,0.48 -0.1013,0.264 -0.30826,0.48 -0.45991,0.48 -0.15165,0 -0.19283,-0.216 -0.0915,-0.48 z m -105.80428,-1.76 c 0,-0.59734 0.08533,-0.68267 0.384,-0.384 0.298666,0.29866 0.298666,0.46933 0,0.768 -0.298667,0.29866 -0.384,0.21333 -0.384,-0.384 z m 8,0 c 0,-0.176 0.144,-0.32 0.32,-0.32 0.176,0 0.32,0.144 0.32,0.32 0,0.176 -0.144,0.32 -0.32,0.32 -0.176,0 -0.32,-0.144 -0.32,-0.32 z m -10.240001,-0.24659 c 0,-0.49969 0.911242,-0.73471 1.161057,-0.29944 0.121853,0.21231 0.103714,0.27927 -0.04031,0.1488 -0.144024,-0.13047 -0.455111,-0.0768 -0.691305,0.11918 -0.269998,0.22408 -0.429443,0.23576 -0.429443,0.0315 z m -2.216356,-0.84493 c -0.256163,-0.30865 -0.26856,-0.51712 -0.03918,-0.65888 0.184546,-0.11406 0.335538,0.0171 0.335538,0.29151 0,0.59612 0.51971,0.66482 0.748071,0.0989 0.09642,-0.23896 0.171574,-0.17454 0.186666,0.16 0.03035,0.67277 -0.708721,0.7379 -1.231093,0.10848 z m 6.056357,-0.6496 c 0,-0.27439 0.144,-0.49888 0.32,-0.49888 0.176,0 0.32,0.1355 0.32,0.30111 0,0.16561 -0.144,0.39011 -0.32,0.49889 -0.176,0.10877 -0.32,-0.0267 -0.32,-0.30112 z m 12.32,-1.13888 c -0.108774,-0.176 -0.04527,-0.32 0.141115,-0.32 0.186387,0 0.338885,0.144 0.338885,0.32 0,0.176 -0.0635,0.32 -0.141114,0.32 -0.07761,0 -0.230112,-0.144 -0.338886,-0.32 z m -24.909444,-0.53611 c -0.32042,-0.32042 -0.251205,-0.80679 0.08523,-0.59886 0.16268,0.10054 0.346934,-0.071 0.409454,-0.38112 0.104146,-0.51665 0.1314,-0.51894 0.325197,-0.0273 0.219393,0.55656 -0.449189,1.37797 -0.819876,1.00729 z m 1.709443,-0.12278 c 0,-0.18639 0.144,-0.24989 0.32,-0.14111 0.176,0.10877 0.32,0.26127 0.32,0.33888 0,0.0776 -0.144,0.14112 -0.32,0.14112 -0.176,0 -0.32,-0.1525 -0.32,-0.33889 z m -5.44,-1.7803 c 0,-0.42521 0.08688,-0.44708 0.48,-0.12082 0.264,0.21911 0.48,0.45274 0.48,0.51919 0,0.0665 -0.216,0.12082 -0.48,0.12082 -0.264,0 -0.48,-0.23364 -0.48,-0.51919 z m -6.72,-3.89272 c 0,-0.13854 0.291112,-0.27383 0.646916,-0.30063 0.355804,-0.0268 0.563305,0.0865 0.461115,0.2519 -0.224798,0.36373 -1.108031,0.40258 -1.108031,0.0487 z m 2.18,-0.28669 c 0.231,-0.0924 0.507,-0.0811 0.613333,0.0253 0.106334,0.10633 -0.08267,0.18197 -0.42,0.16807 -0.372782,-0.0154 -0.448608,-0.0912 -0.193333,-0.19333 z M 7.2263996,183.50946 c 0.048361,-0.23308 -0.092071,-0.38779 -0.3120715,-0.34379 -0.22,0.044 -0.4,-0.20922 -0.4,-0.56271 0,-0.5626 0.079766,-0.59289 0.64,-0.24302 0.6941033,0.43347 0.8340315,1.04805 0.3120715,1.37064 -0.1803607,0.11146 -0.2883607,0.012 -0.24,-0.22112 z m 12.0879294,0.0562 c 0,-0.176 0.144,-0.32 0.32,-0.32 0.176,0 0.32,0.144 0.32,0.32 0,0.176 -0.144,0.32 -0.32,0.32 -0.176,0 -0.32,-0.144 -0.32,-0.32 z m -17.2800011,-0.48 c 0,-0.26666 -0.2844445,-0.48 -0.64,-0.48 -0.3520001,0 -0.64000007,-0.13948 -0.64000007,-0.30995 0,-0.17048 0.21600001,-0.22707 0.48000007,-0.12577 0.308297,0.11831 0.48,-0.007 0.48,-0.34892 0,-0.29322 0.1463489,-0.44268 0.3252198,-0.33213 0.1788709,0.11055 0.2442117,0.33207 0.1452018,0.49227 -0.09901,0.1602 -0.024292,0.58225 0.166039,0.93789 0.2334455,0.4362 0.238261,0.64661 0.014798,0.64661 -0.1821923,0 -0.3312588,-0.216 -0.3312588,-0.48 z m 1.28,-0.0427 c 0,-0.34614 -0.18,-0.82333 -0.4,-1.06043 -0.3265283,-0.35192 -0.2971396,-0.3949 0.16,-0.23405 0.6540718,0.23016 0.7307982,-0.11416 0.16,-0.71803 -0.3296933,-0.34879 -0.2773438,-0.36014 0.2978353,-0.0646 0.6022129,0.30943 0.6583767,0.49615 0.4098738,1.36263 -0.35552,1.23963 -0.6277091,1.54944 -0.6277091,0.71448 z m 10.9052641,0.016 c 0.01535,-0.37278 0.09118,-0.44861 0.193333,-0.19334 0.09244,0.231 0.08107,0.507 -0.02526,0.61334 -0.106334,0.10633 -0.181965,-0.0827 -0.16807,-0.42 z m -3.200001,-0.32 c 0.01535,-0.37278 0.09118,-0.44861 0.193334,-0.19334 0.09244,0.231 0.08107,0.507 -0.02526,0.61334 -0.106334,0.10633 -0.181965,-0.0827 -0.168071,-0.42 z m -5.465263,-0.13334 c 0,-0.176 0.1524985,-0.32 0.3388855,-0.32 0.186387,0 0.2498885,0.144 0.1411145,0.32 -0.1087739,0.176 -0.2612724,0.32 -0.3388854,0.32 -0.077613,0 -0.1411146,-0.144 -0.1411146,-0.32 z m -0.96,-0.65888 c 0,-0.18639 0.144,-0.24989 0.32,-0.14112 0.176,0.10878 0.32,0.26128 0.32,0.33889 0,0.0776 -0.144,0.14111 -0.32,0.14111 -0.176,0 -0.32,-0.15249 -0.32,-0.33888 z m -3.83019999,-0.46112 c 0,-0.176 0.13958993,-0.536 0.31019979,-0.8 0.17061,-0.264 0.3101999,-0.336 0.3101999,-0.16 0,0.176 -0.1395899,0.536 -0.3101999,0.8 -0.17060986,0.264 -0.31019979,0.336 -0.31019979,0.16 z m 0.63019989,-2.09004 c 0,-0.17047 0.216,-0.30996 0.48,-0.30996 0.6146144,0 0.6146144,0.19988 0,0.43573 -0.264,0.1013 -0.48,0.0447 -0.48,-0.12577 z m 28.1600011,-3.18996 c 0,-0.176 0.135502,-0.32 0.301115,-0.32 0.165613,0 0.390111,0.144 0.498885,0.32 0.108774,0.176 -0.02673,0.32 -0.301115,0.32 -0.274387,0 -0.498885,-0.144 -0.498885,-0.32 z M 85.377102,165.9378 c -0.11825,-0.19134 -0.505589,-0.27189 -0.860753,-0.17901 -0.836667,0.21879 -1.632549,-0.51458 -1.117446,-1.02969 0.199885,-0.19988 0.538267,-0.36343 0.751958,-0.36343 0.244144,0 0.03972,-0.72008 -0.550086,-1.93766 -0.516239,-1.06571 -1.350865,-3.33371 -1.854725,-5.04 -0.50386,-1.70628 -1.307591,-3.93888 -1.78607,-4.96133 l -0.869961,-1.859 -1.800143,1.98922 c -0.990079,1.09407 -2.595609,2.4946 -3.567844,3.11229 -0.972236,0.61768 -2.367243,1.61022 -3.100016,2.20563 l -1.332315,1.08258 -1.227685,-0.52668 c -0.675227,-0.28967 -2.811686,-0.66408 -4.747686,-0.83204 -1.936,-0.16795 -4.672,-0.40608 -6.08,-0.52918 l -2.56,-0.22383 -0.238922,-3.34507 c -0.131407,-1.8398 -0.122749,-3.46125 0.01924,-3.60324 0.141989,-0.14199 1.041504,-0.093 1.998922,0.10878 0.957418,0.20182 3.03676,0.45528 4.62076,0.56324 1.951775,0.13303 2.892892,0.32521 2.92,0.59629 0.08085,0.80847 0.135275,0.87137 0.396935,0.45873 0.146923,-0.2317 0.497357,-0.45507 0.778741,-0.49636 0.281384,-0.0413 1.114254,-0.75973 1.850822,-1.59652 0.814189,-0.92497 1.517108,-1.45316 1.792979,-1.3473 0.24957,0.0958 0.378949,0.0531 0.287509,-0.0949 -0.09144,-0.14795 0.117082,-0.82475 0.46338,-1.504 0.346299,-0.67924 0.629635,-1.43945 0.629635,-1.68935 0,-0.24989 0.413726,-1.69545 0.919391,-3.21234 0.505665,-1.51688 1.165015,-3.90998 1.465223,-5.31798 1.035377,-4.85601 1.710771,-6.76405 2.600693,-7.34715 0.456622,-0.29919 0.888768,-0.48544 0.960324,-0.41388 0.07156,0.0716 -0.208988,0.83906 -0.623432,1.70557 -0.620048,1.29638 -1.847347,5.99324 -2.543898,9.73546 -0.0819,0.44 -0.44491,1.664 -0.806693,2.72 -0.361783,1.056 -0.888756,2.748 -1.17105,3.76 -0.282294,1.012 -0.69268,1.84 -0.911967,1.84 -0.548549,0 -2.584114,2.1736 -3.22155,3.44 -0.59124,1.17463 -0.609114,1.18213 -1.568079,0.65793 -0.384429,-0.21014 -2.066963,-0.48949 -3.738963,-0.62077 -1.672,-0.13128 -3.715429,-0.3371 -4.540953,-0.45739 l -1.500953,-0.21871 0.180015,1.87947 c 0.09901,1.03371 0.342437,2.03871 0.540953,2.23334 0.309205,0.30314 2.138019,0.5773 10.280938,1.54125 0.704,0.0833 1.570704,0.23912 1.926008,0.34618 0.418677,0.12615 1.038024,-0.0898 1.76,-0.61359 0.612696,-0.44452 1.879948,-1.26398 2.816116,-1.821 1.022708,-0.60852 2.236147,-1.73004 3.04,-2.80974 1.78744,-2.4008 1.860477,-2.46933 2.828956,-2.65446 0.790014,-0.15103 0.916346,0.012 2.129381,2.74847 0.709247,1.59996 1.459635,3.70102 1.667528,4.66902 0.207893,0.968 1.042921,3.092 1.855619,4.72 l 1.477632,2.96 h 1.529381 c 0.841159,0 1.52938,-0.0544 1.52938,-0.12092 0,-0.0665 -0.201427,-0.6065 -0.447615,-1.2 -0.246189,-0.59349 -0.834044,-2.59108 -1.306345,-4.43908 -1.745297,-6.82891 -3.037982,-10.07956 -4.120962,-10.36277 -0.442468,-0.11571 -0.543226,-0.31685 -0.369759,-0.73814 0.504967,-1.22638 1.704602,-6.20476 3.186849,-13.22515 0.955438,-4.52526 2.415318,-7.99394 3.364449,-7.99394 0.359361,0 0.654,0.18 0.654753,0.4 7.54e-4,0.22 0.420281,1.03143 0.932283,1.80318 0.718519,1.08304 0.845974,1.49552 0.55863,1.80791 -0.464748,0.50526 -1.012936,0.10527 -1.714145,-1.25071 l -0.499663,-0.96625 -0.547731,1.10294 c -0.301252,0.60661 -0.800296,2.25493 -1.108986,3.66293 -0.308691,1.408 -0.905266,4 -1.325722,5.76 -0.420456,1.76 -0.976486,4.44111 -1.235621,5.95803 l -0.471155,2.75802 1.075066,2.04198 c 0.95327,1.81064 1.588392,3.80843 3.243326,10.20197 0.250561,0.968 0.94985,2.72184 1.553975,3.89741 1.328354,2.58485 1.138987,2.91966 -1.358243,2.40146 -1.288718,-0.26742 -1.845447,-0.25912 -2.315659,0.0345 -0.766141,0.47846 -1.166547,0.48919 -1.444954,0.0387 z m 7.49639,-31.6999 c -0.02246,-0.0617 -0.07426,-0.42496 -0.115108,-0.8072 -0.06724,-0.62924 0.06526,-0.69059 1.400839,-0.64863 1.582774,0.0497 7.859927,-0.34584 9.527027,-0.60036 0.78213,-0.11942 1.09095,-0.38124 1.36,-1.15302 0.61792,-1.77256 0.63724,-1.76278 -3.17192,-1.60584 -3.422901,0.14103 -3.519998,0.12624 -3.519998,-0.53607 0,-0.64827 0.150527,-0.68111 3.122108,-0.68111 1.71717,0 3.58166,-0.13179 4.14333,-0.29288 1.59061,-0.45618 1.81688,0.11728 1.01067,2.56136 -0.3722,1.12834 -0.87527,2.26307 -1.11795,2.52163 -0.32407,0.34529 -1.6515,0.5348 -4.99969,0.7138 -2.507157,0.13404 -5.242468,0.33299 -6.078468,0.44212 -0.836,0.10913 -1.538378,0.14792 -1.56084,0.0862 z M 59.31433,132.68567 c -0.44,-0.34417 -1.04,-0.62897 -1.333333,-0.63288 -1.019173,-0.0136 -0.783494,-0.8135 1.309016,-4.44285 2.329497,-4.04039 4.126203,-6.27736 4.724464,-5.88216 0.266552,0.17608 -0.147636,1.01413 -1.386074,2.80451 -1.533612,2.21711 -3.634073,5.90064 -3.634073,6.373 0,0.0868 0.280436,0.30795 0.623192,0.49139 0.505778,0.27068 0.783807,0.1729 1.475687,-0.51898 0.468873,-0.46887 0.880767,-1.00989 0.915319,-1.20226 0.157888,-0.87904 1.529643,-3.07353 2.300029,-3.67952 1.090787,-0.85801 1.692116,-0.8432 5.454525,0.13436 1.998675,0.5193 3.475188,0.73361 4.164,0.60438 0.933396,-0.1751 1.067249,-0.11624 1.067249,0.4693 0,0.44819 -0.265823,0.73624 -0.804096,0.87134 -0.966735,0.24263 -1.740036,0.11991 -5.216858,-0.82788 -2.153121,-0.58694 -2.814208,-0.65555 -3.46398,-0.3595 -0.441664,0.20124 -0.928388,0.28841 -1.081609,0.19371 -0.153221,-0.0947 -0.97043,1.2696 -1.81602,3.03178 -0.940266,1.95947 -1.72388,3.2028 -2.017438,3.20099 -0.264,-0.002 -0.84,-0.28455 -1.28,-0.62873 z m 36.160002,-4.12128 c -5.003936,-7.64683 -5.298451,-7.98825 -6.387951,-7.40517 -0.429655,0.22995 -0.678955,0.2218 -0.832852,-0.0272 -0.12383,-0.20037 0.570409,-1.14298 1.591485,-2.16087 0.996121,-0.99301 2.022221,-2.21794 2.280223,-2.72205 1.518737,-2.96751 -1.237465,-7.65709 -5.291735,-9.0037 -2.466702,-0.81931 -4.524432,-0.2703 -6.971041,1.85988 -1.005472,0.87543 -1.886887,1.75115 -1.9587,1.94604 -0.07181,0.1949 -0.37936,0.53099 -0.683436,0.74689 -0.851164,0.60433 -1.021366,1.90441 -0.489043,3.73554 0.580177,1.99574 2.1464,3.68943 4.191745,4.53289 0.944256,0.3894 1.431304,0.7857 1.431304,1.16464 0,0.7225 -0.250165,0.71875 -1.996674,-0.0299 -2.949409,-1.26426 -5.022102,-4.17356 -5.036298,-7.06911 -0.0088,-1.79717 1.255049,-3.73603 3.720582,-5.70766 2.54722,-2.03695 4.967699,-3.06307 6.60703,-2.80093 5.580606,0.89238 9.88225,6.9297 7.802723,10.95106 -0.274075,0.53 -1.030202,1.59978 -1.680282,2.37728 -0.8388,1.00322 -1.04789,1.44029 -0.720172,1.50543 0.253986,0.0505 0.990563,0.91448 1.636839,1.92 2.728886,4.24578 3.94788,5.83174 4.626253,6.01892 0.81254,0.22421 0.892646,0.46865 0.336,1.02529 -0.670277,0.67028 -1.3522,0.40162 -2.176,-0.85728 z m -20.160001,-0.53796 c 0,-0.6074 0.868746,-0.79629 1.295786,-0.28173 0.210418,0.25353 0.328946,0.47297 0.263396,0.48764 -0.886006,0.19824 -1.559182,0.10934 -1.559182,-0.20591 z m 1.6,-5.81012 c -0.616,-0.0698 -2.476825,-0.40035 -4.135166,-0.73452 -2.563259,-0.51651 -3.394897,-0.55647 -5.54876,-0.2666 -1.841512,0.24782 -2.630632,0.24393 -2.888834,-0.0143 -1.3217,-1.3217 4.700989,-1.63218 9.154487,-0.47193 1.597463,0.41618 3.29045,0.75669 3.762193,0.75669 0.471744,0 1.036979,0.216 1.25608,0.48 0.321553,0.38745 0.313682,0.47013 -0.04082,0.42879 -0.24155,-0.0282 -0.943182,-0.10833 -1.559182,-0.17815 z M 65.07433,114.0355 c -0.264,-0.21441 -1.337584,-1.54183 -2.385742,-2.94983 -1.048159,-1.408 -2.778158,-3.496 -3.844442,-4.64 -1.066285,-1.144 -2.26054,-2.49521 -2.653902,-3.0027 l -0.715202,-0.9227 -2.800356,0.42578 c -4.662848,0.70896 -10.06717,0.45491 -12.054294,-0.56665 -3.08426,-1.5856 -7.818938,-6.25448 -9.033937,-8.908387 -0.842499,-1.840261 -2.129736,-7.285626 -2.681939,-11.34534 -0.788432,-5.796423 -0.09128,-10.599174 1.946962,-13.41289 1.154726,-1.594052 3.59803,-3.409811 7.079725,-5.261346 3.627252,-1.92894 6.128698,-2.558011 9.383127,-2.359696 3.261677,0.198757 11.884798,2.448228 15.146097,3.951089 7.580143,3.493054 8.459006,4.020585 11.110703,6.669119 3.044738,3.041104 4.37087,5.499733 4.953804,9.184279 0.680701,4.302494 0.386732,6.054904 -1.60193,9.549446 -0.951496,1.672 -2.196097,3.692853 -2.765779,4.490785 l -1.035786,1.450786 0.825208,-0.01079 c 0.976239,-0.01276 1.35772,0.70853 0.514294,0.972407 -1.223822,0.382889 -2.867076,1.170706 -3.94661,1.892105 -0.616,0.411642 -2.272,0.995149 -3.680001,1.296679 -3.988735,0.85422 -4.542752,1.15848 -4.965053,2.72679 -0.336123,1.24826 -0.302911,1.84169 0.189812,3.39151 0.173057,0.54433 0.148532,0.54191 -0.318636,-0.0314 -0.278367,-0.34164 -0.506123,-0.51657 -0.506123,-0.38874 0,0.35125 0.990153,1.86245 1.849816,2.82324 0.419935,0.46933 1.003518,1.12208 1.296851,1.45055 1.414087,1.58349 2.33267,3.05204 2.171605,3.47177 -0.215221,0.56086 -0.826779,0.58326 -1.478272,0.0542 z m -4.560919,-9.74983 c 0.111217,-3.20532 0.368347,-3.68413 2.317813,-4.3161 0.943489,-0.305856 2.584044,-0.713612 3.645678,-0.906123 1.061635,-0.192511 2.325519,-0.554424 2.808632,-0.804252 1.502802,-0.777129 4.706218,-4.925941 6.403665,-8.293521 l 1.612977,-3.200001 -0.153373,-3.68 c -0.191591,-4.59697 -1.059758,-7.003034 -3.524805,-9.768756 -1.474861,-1.654757 -5.922114,-4.951244 -6.679667,-4.951244 -0.158336,0 -1.759861,-0.700558 -3.558943,-1.556795 -1.799082,-0.856237 -4.351058,-1.874951 -5.671058,-2.263808 -1.32,-0.388858 -2.76,-0.836533 -3.2,-0.994834 -0.44,-0.1583 -1.232,-0.362178 -1.76,-0.453062 -0.528,-0.09088 -1.752277,-0.310509 -2.720616,-0.488058 -4.2425,-0.777878 -6.812793,-0.444297 -10.399385,1.349663 -4.75743,2.379597 -8.723362,5.696012 -8.322381,6.959393 0.101258,0.319034 -0.006,0.775237 -0.238301,1.013782 -1.834826,1.883968 -1.545608,9.171672 0.742096,18.699285 0.726011,3.023623 3.057277,6.131097 6.698586,8.92892 3.162823,2.430171 4.481382,2.797971 7.511918,2.095361 0.893001,-0.20704 1.338921,-0.18647 1.496829,0.069 0.167775,0.27146 1.14535,0.26639 3.848083,-0.02 1.992744,-0.21113 3.921384,-0.46481 4.285866,-0.56373 0.516789,-0.14026 0.854682,0.11025 1.534692,1.13782 0.71572,1.08152 3.021456,3.84699 3.207468,3.84699 0.02771,0 0.07911,-0.828 0.114226,-1.84 z M 42.963944,89.108074 c -0.04954,-7.775125 -0.08617,-8.430287 -0.5517,-9.867854 -0.198508,-0.613001 -0.400747,-1.762547 -0.449419,-2.554547 -0.07677,-1.24918 -2.36e-4,-1.452613 0.577542,-1.535185 0.592003,-0.0846 0.712423,0.164385 1.083336,2.24 0.229515,1.284352 0.56747,2.6648 0.751013,3.067662 0.364521,0.800099 1.336217,0.834302 1.34521,0.04735 0.0031,-0.269337 0.327078,-0.898401 0.72,-1.39792 0.392922,-0.49952 0.714404,-1.154479 0.714404,-1.455466 0,-0.798392 -1.035908,-1.606442 -2.059434,-1.606442 -0.679218,0 -0.843198,-0.119461 -0.694803,-0.506172 0.10683,-0.278394 0.194237,-0.566394 0.194237,-0.64 0,-0.07361 0.367151,-0.133828 0.815891,-0.133828 1.043768,0 2.568408,0.784808 2.825331,1.454337 0.499163,1.300798 -0.07742,3.33979 -1.210279,4.279983 -0.432677,0.35909 -0.370618,0.557825 0.520439,1.666626 0.828404,1.030838 1.011695,1.544604 1.011695,2.83579 0,1.111537 -0.183194,1.779298 -0.620783,2.26283 -0.804624,0.889099 -2.249097,1.629765 -2.950075,1.512676 -0.485552,-0.08111 -0.571536,0.312987 -0.712219,3.264348 -0.136027,2.853657 -0.24308,3.372443 -0.714477,3.4624 -0.510168,0.09736 -0.557788,-0.4138 -0.595909,-6.396589 z m 3.367601,-2.300185 c 1.24742,-1.176469 1.401618,-1.97347 0.659473,-3.408621 -0.504768,-0.976112 -1.363283,-1.593595 -2.215651,-1.593595 -0.569122,0 -0.652525,1.473284 -0.212196,3.748366 0.169034,0.873362 0.144166,1.387299 -0.07059,1.458885 -0.372568,0.124189 -0.01418,0.872749 0.417852,0.872749 0.153082,0 0.792583,-0.485003 1.421115,-1.077784 z m 8.098803,4.837785 c -0.08385,-0.22 -0.03101,-1.264 0.11743,-2.32 0.800415,-5.694279 0.980988,-7.083576 0.977409,-7.520001 -0.01126,-1.373035 0.350452,-2.24 0.934569,-2.24 0.436561,0 0.614574,0.223998 0.614574,0.773334 0,0.425333 -0.169907,0.829969 -0.377571,0.89919 -0.826285,0.275428 0.04124,1.207476 1.123892,1.207476 1.19048,0 2.461891,1.02885 3.318541,2.685429 0.861753,1.666448 -0.04205,4.674572 -1.404501,4.674572 -0.692485,0 -0.870385,-0.925931 -0.299171,-1.557116 0.285346,-0.315303 0.51881,-1.018891 0.51881,-1.563529 0,-1.749197 -2.338957,-3.773666 -3.043262,-2.634077 -0.110569,0.178903 -0.266401,0.718903 -0.346295,1.2 -0.949172,5.71565 -1.623379,7.735568 -2.134425,6.394722 z m 3.168262,-3.920001 c -0.101307,-0.264 -0.06012,-0.48 0.09153,-0.48 0.151646,0 0.358607,0.216 0.459914,0.48 0.101306,0.264 0.06012,0.48 -0.09153,0.48 -0.151646,0 -0.358607,-0.216 -0.459913,-0.48 z m -0.663706,-1.346199 c -0.173659,-0.456063 -0.136903,-0.492819 0.179134,-0.179134 0.218694,0.217067 0.317015,0.475277 0.218491,0.573801 -0.09852,0.09852 -0.277455,-0.07908 -0.397625,-0.394667 z m 1.259426,-6.859648 c -1.779922,-0.416755 -5.023107,-1.272944 -5.6,-1.47838 -0.264,-0.09401 -0.804,-0.139215 -1.2,-0.100451 -0.53764,0.05263 -0.72,-0.09742 -0.72,-0.592421 0,-0.724311 0.230571,-0.810855 0.949268,-0.356305 0.294045,0.185973 0.614482,0.176277 0.858173,-0.02597 0.262024,-0.217461 0.787532,-0.212071 1.610732,0.01652 1.910724,0.53058 1.988754,0.490667 1.675762,-0.857148 -0.491688,-2.117316 -0.361214,-5.066908 0.245979,-5.560817 0.471775,-0.383757 0.513924,-0.369803 0.333976,0.110569 -0.113266,0.302364 -0.06823,0.634862 0.100086,0.738886 0.168313,0.104023 0.312379,0.864635 0.320147,1.690248 0.02085,2.216354 0.733518,4.613606 1.455762,4.896856 0.335563,0.131602 1.212741,0.249397 1.949283,0.261767 0.736543,0.01237 1.724194,0.168878 2.194781,0.347795 0.709816,0.269871 0.788482,0.406192 0.46165,0.8 -0.445597,0.536911 -2.59212,0.587313 -4.635599,0.108849 z"
       id="path1" />
  </g>
</svg>
